<svg width="80" height="80" viewBox="0 0 80 80" fill="none" xmlns="http://www.w3.org/2000/svg">
<g clip-path="url(#clip0_5_7)">
<path d="M71.8444 13.3333C71.5415 13.3021 71.2362 13.3021 70.9333 13.3333H8.7111C8.31231 13.3395 7.91616 13.3993 7.53333 13.5111L39.6444 45.4889L71.8444 13.3333Z" fill="black"/>
<path d="M75.1333 16.4222L42.7778 48.6444C41.945 49.4722 40.8186 49.9369 39.6444 49.9369C38.4703 49.9369 37.3438 49.4722 36.5111 48.6444L4.44444 16.6667C4.34586 17.029 4.29359 17.4023 4.28888 17.7778V62.2222C4.28888 63.401 4.75713 64.5314 5.59063 65.3649C6.42412 66.1984 7.55458 66.6667 8.73332 66.6667H70.9556C72.1343 66.6667 73.2648 66.1984 74.0983 65.3649C74.9317 64.5314 75.4 63.401 75.4 62.2222V17.7778C75.3823 17.3148 75.2923 16.8574 75.1333 16.4222ZM11.7778 62.2222H8.68888V59.0444L24.8444 43.0222L27.9778 46.1555L11.7778 62.2222ZM70.9111 62.2222H67.8L51.6 46.1555L54.7333 43.0222L70.8889 59.0444L70.9111 62.2222Z" fill="black"/>
</g>
<defs>
<clipPath id="clip0_5_7">
<rect width="80" height="80" fill="white"/>
</clipPath>
</defs>
</svg>
