<svg width="70" height="70" viewBox="0 0 70 70" fill="none" xmlns="http://www.w3.org/2000/svg">
<path d="M64.1666 35C64.1651 27.265 61.0917 19.8472 55.6222 14.3778C50.1527 8.90829 42.735 5.83489 35 5.83334V11.6667C39.6144 11.6677 44.125 13.0364 47.9619 15.5999C51.7988 18.1634 54.7898 21.8066 56.5571 26.0692C57.7299 28.9006 58.3335 31.9353 58.3333 35H64.1666ZM5.83331 29.1667V14.5833C5.83331 13.8098 6.1406 13.0679 6.68758 12.5209C7.23457 11.974 7.97643 11.6667 8.74998 11.6667H23.3333C24.1069 11.6667 24.8487 11.974 25.3957 12.5209C25.9427 13.0679 26.25 13.8098 26.25 14.5833V26.25C26.25 27.0236 25.9427 27.7654 25.3957 28.3124C24.8487 28.8594 24.1069 29.1667 23.3333 29.1667H17.5C17.5 35.3551 19.9583 41.29 24.3342 45.6658C28.71 50.0417 34.6449 52.5 40.8333 52.5V46.6667C40.8333 45.8931 41.1406 45.1513 41.6876 44.6043C42.2346 44.0573 42.9764 43.75 43.75 43.75H55.4166C56.1902 43.75 56.9321 44.0573 57.479 44.6043C58.026 45.1513 58.3333 45.8931 58.3333 46.6667V61.25C58.3333 62.0236 58.026 62.7654 57.479 63.3124C56.9321 63.8594 56.1902 64.1667 55.4166 64.1667H40.8333C21.5046 64.1667 5.83331 48.4954 5.83331 29.1667Z" fill="black"/>
<path d="M51.1671 28.3033C52.0475 30.4262 52.5005 32.7018 52.5 35H47.25C47.2504 33.3912 46.9338 31.7981 46.3183 30.3117C45.7028 28.8253 44.8005 27.4747 43.6629 26.3371C42.5253 25.1995 41.1747 24.2972 39.6883 23.6817C38.2019 23.0662 36.6088 22.7496 35 22.75V17.5C38.4611 17.5002 41.8444 18.5267 44.7221 20.4496C47.5998 22.3726 49.8426 25.1057 51.1671 28.3033Z" fill="black"/>
</svg>
