<svg width="20" height="20" viewBox="0 0 20 20" fill="none" xmlns="http://www.w3.org/2000/svg">
<g clip-path="url(#clip0_61_2)">
<path d="M16 8C16 6.4087 15.3679 4.88258 14.2426 3.75736C13.1174 2.63214 11.5913 2 10 2C8.4087 2 6.88258 2.63214 5.75736 3.75736C4.63214 4.88258 4 6.4087 4 8V19H2C1.46957 19 0.960859 18.7893 0.585786 18.4142C0.210714 18.0391 0 17.5304 0 17V13C0 12.4696 0.210714 11.9609 0.585786 11.5858C0.960859 11.2107 1.46957 11 2 11V8C2 5.87827 2.84285 3.84344 4.34315 2.34315C5.84344 0.842855 7.87827 0 10 0C12.1217 0 14.1566 0.842855 15.6569 2.34315C17.1571 3.84344 18 5.87827 18 8V11C18.5304 11 19.0391 11.2107 19.4142 11.5858C19.7893 11.9609 20 12.4696 20 13V17C20 17.5304 19.7893 18.0391 19.4142 18.4142C19.0391 18.7893 18.5304 19 18 19H16V8ZM12 10H15V20H12V10ZM5 10H8V20H5V10Z" fill="#9747FF"/>
</g>
<defs>
<clipPath id="clip0_61_2">
<rect width="20" height="20" fill="white"/>
</clipPath>
</defs>
</svg>
